# xmcd
#
# Track frame offsets: 
#        150
#        17081
#        31401
#        50499
#        65333
#        81003
#        97706
#        115614
#        128916
#        142934
#        158883
#        176532
#        197190
#        213483
#
# Disc length: 3111 seconds
#
# Revision: 0
# Processed by: cddbd v1.5.2PL0 Copyright (c) Steve Scherf et al.
# Submitted via: ExactAudioCopy v0.95b4
#
DISCID=b40c250e
DTITLE=Various Artist - Hot Hits Country Vol. 101
DYEAR=2000
DGENRE=Country
TTITLE0=George Strait - Go On
TTITLE1=Terri Clark - A Little Gasoline
TTITLE2=Dixie Chicks - Cold Day In July
TTITLE3=Clay Davidson - I Can't Lie To Me
TTITLE4=Sons Of The Desert - Everybody's Gotta Grow Up Sometime
TTITLE5=Collin Raye and Bobbie Eakes - Tired Of Loving This Way
TTITLE6=Yankee Grey - This Time Around
TTITLE7=Randy Travis - I'll Be Right Here Loving You
TTITLE8=Chris Cagle - My Love Goes On And On
TTITLE9=Daryle Singletary - I Knew I Loved You
TTITLE10=John Rich - I Pray For You
TTITLE11=Anita Cochran - You With Me
TTITLE12=Sara Evans - Born To Fly
TTITLE13=Clay Walker - Once In A Lifetime Love
EXTD=
EXTT0=
EXTT1=
EXTT2=
EXTT3=
EXTT4=
EXTT5=
EXTT6=
EXTT7=
EXTT8=
EXTT9=
EXTT10=
EXTT11=
EXTT12=
EXTT13=
PLAYORDER=
